<svg width="256" height="256" viewBox="0 0 256 256" xmlns="http://www.w3.org/2000/svg">
  <defs>
    <radialGradient id="bg" cx="50%" cy="45%" r="70%">
      <stop offset="0%" stop-color="#111826"/>
      <stop offset="100%" stop-color="#060609"/>
    </radialGradient>
  </defs>
  <rect x="8" y="8" width="240" height="240" rx="52" fill="url(#bg)"/>
  <g transform="translate(28 28) scale(0.8)" fill="none" stroke="#10ff50">
    <circle cx="125" cy="125" r="96" stroke-opacity="0.35" stroke-width="2"/>
    <g stroke-opacity="0.8" stroke-width="2.5" stroke-linecap="round">
      <line x1="125" y1="29" x2="68.57" y2="47.33"/>
      <line x1="181.43" y1="47.33" x2="33.7" y2="95.33"/>
      <line x1="216.3" y1="95.33" x2="33.7" y2="154.67"/>
      <line x1="216.3" y1="154.67" x2="68.57" y2="202.67"/>
      <line x1="181.43" y1="202.67" x2="125" y2="221"/>
    </g>
    <g fill="#10ff50" stroke="none">
      <circle cx="125" cy="29" r="7"/>
      <circle cx="181.43" cy="47.33" r="5"/>
      <circle cx="216.3" cy="95.33" r="5"/>
      <circle cx="216.3" cy="154.67" r="5"/>
      <circle cx="181.43" cy="202.67" r="5"/>
      <circle cx="125" cy="221" r="5"/>
      <circle cx="68.57" cy="202.67" r="5"/>
      <circle cx="33.7" cy="154.67" r="5"/>
      <circle cx="33.7" cy="95.33" r="5"/>
      <circle cx="68.57" cy="47.33" r="7"/>
    </g>
  </g>
</svg>
